<svg width="20" height="20" viewBox="0 0 20 20" fill="none" xmlns="http://www.w3.org/2000/svg">
<path d="M10 2.85714C8.1056 2.85714 6.28878 3.60969 4.94924 4.94924C3.60969 6.28878 2.85714 8.1056 2.85714 10C2.85714 11.8944 3.60969 13.7112 4.94924 15.0508C6.28878 16.3903 8.1056 17.1429 10 17.1429C11.8944 17.1429 13.7112 16.3903 15.0508 15.0508C16.3903 13.7112 17.1429 11.8944 17.1429 10C17.1429 8.1056 16.3903 6.28878 15.0508 4.94924C13.7112 3.60969 11.8944 2.85714 10 2.85714ZM20 10C20 12.6522 18.9464 15.1957 17.0711 17.0711C15.1957 18.9464 12.6522 20 10 20C7.34784 20 4.8043 18.9464 2.92893 17.0711C1.05357 15.1957 0 12.6522 0 10C0 7.34784 1.05357 4.8043 2.92893 2.92893C4.8043 1.05357 7.34784 0 10 0C12.6522 0 15.1957 1.05357 17.0711 2.92893C18.9464 4.8043 20 7.34784 20 10Z" fill="white"/>
</svg>
