<svg width="20" height="20" viewBox="0 0 20 20" fill="none" xmlns="http://www.w3.org/2000/svg">
<path d="M19.8347 15.3135L14.5197 9.99911L19.833 4.68525C19.8854 4.63291 19.9269 4.57078 19.9552 4.50239C19.9836 4.434 19.9981 4.36071 19.9981 4.28668C19.9981 4.21266 19.9836 4.13937 19.9552 4.07098C19.9269 4.00259 19.8854 3.94046 19.833 3.88812L16.1109 0.165127C16.0051 0.0593969 15.8617 0 15.7122 0C15.5626 0 15.4192 0.0593969 15.3135 0.165127L9.99933 5.47899L4.68604 0.165127C4.47464 -0.0465544 4.1003 -0.0465544 3.88862 0.165127L0.165626 3.88755C0.0600344 3.99338 0.000733183 4.13677 0.000733183 4.28626C0.000733183 4.43575 0.0600344 4.57914 0.165626 4.68497L5.47977 9.99911L0.164776 15.3138C0.0592533 15.4197 0 15.5631 0 15.7125C0 15.862 0.0592533 16.0054 0.164776 16.1112L3.8872 19.8339C3.93952 19.8864 4.00167 19.928 4.07009 19.9563C4.1385 19.9847 4.21184 19.9993 4.28591 19.9993C4.35997 19.9993 4.43331 19.9847 4.50173 19.9563C4.57014 19.928 4.63229 19.8864 4.68462 19.8339L9.99933 14.5192L15.3143 19.8337C15.4246 19.9436 15.5682 19.9989 15.713 19.9989C15.8578 19.9989 16.0018 19.9436 16.112 19.8337L19.835 16.111C19.9407 16.0052 20.0001 15.8617 20 15.7122C19.9999 15.5627 19.9405 15.4193 19.8347 15.3135Z" fill="white"/>
</svg>
